# xmcd CD database file
#
# Track frame offsets:
#	183
#	26270
#	50495
#	66935
#	84233
#	108005
#	131885
#	142690
#	166470
#	184280
#
# Disc length: 2691 seconds
#
# Revision: 5
# Processed by: cddbd v1.5.2PL0 Copyright (c) Steve Scherf et al.
# Submitted via: CDex 1.51
#
DISCID=7e0a810a
DTITLE=Michel Petrucciani - Music
DYEAR=1989
DGENRE=Jazz
TTITLE0=Looking up
TTITLE1=Memories of Paris
TTITLE2=My bebop tune
TTITLE3=Brazilian suite No. 2
TTITLE4=Bite
TTITLE5=Lullaby
TTITLE6=O nana oye
TTITLE7=Play me
TTITLE8=Happy Birthday Mr. K
TTITLE9=Thinking of Wayne
EXTD=YEAR: 1989
EXTT0=
EXTT1=
EXTT2=
EXTT3=
EXTT4=
EXTT5=
EXTT6=
EXTT7=
EXTT8=
EXTT9=
PLAYORDER=
